<svg xmlns="http://www.w3.org/2000/svg" xmlns:xlink="http://www.w3.org/1999/xlink" width="1598.683" height="329.773" viewBox="0 0 1598.683 329.773">
  <defs>
    <linearGradient id="linear-gradient" x1="-0.222" y1="0.752" x2="1" gradientUnits="objectBoundingBox">
      <stop offset="0" stop-color="#a0f046"/>
      <stop offset="1" stop-color="#1db702"/>
    </linearGradient>
  </defs>
  <g id="Group_415" data-name="Group 415" transform="translate(-2077.212 -2428.435)">
    <g id="Group_55" data-name="Group 55" transform="translate(2077.212 2428.435)">
      <g id="Group_413" data-name="Group 413" transform="translate(866.696 76.047)">
        <rect id="Rectangle_3141" data-name="Rectangle 3141" width="83.779" height="243.496" transform="translate(0 5.115)" style="isolation: isolate"/>
        <path id="Path_418" data-name="Path 418" d="M-110.343-2250.325c-.006-.248-.016-.507-.023-.76-.016-.516-.034-1.043-.057-1.579-.016-.332-.034-.669-.051-1.013-.025-.49-.057-.979-.09-1.487q-.038-.587-.081-1.179c-.038-.477-.081-.963-.124-1.448-.039-.439-.074-.875-.119-1.326s-.1-.892-.146-1.331c-.116-1.048-.251-2.115-.4-3.21-.041-.309-.08-.61-.125-.919-.1-.669-.206-1.343-.317-2.021-.049-.3-.1-.606-.149-.913-.123-.712-.257-1.44-.393-2.171-.049-.245-.1-.5-.147-.753-.158-.8-.323-1.6-.5-2.413-.019-.088-.041-.173-.058-.265-6.128-27.746-24.5-62.341-75.388-62.341-32.868,0-61.712,20.865-61.712,20.865v-15.749H-334v243.49h83.78v-146.306a35.3,35.3,0,0,1,1.056-8.779c2.183-8.515,8.643-23.613,27.007-23.613s24.826,15.1,27.008,23.613a35.4,35.4,0,0,1,1.057,8.779v146.306h83.778v-161.3C-110.317-2248.835-110.326-2249.571-110.343-2250.325Z" transform="translate(462.761 2335.453)"/>
        <path id="Path_419" data-name="Path 419" d="M-42.583-2180.233s-12.526,31.153-44.5,31.153c-24.6,0-32.242-32.674-32.242-59.512s7.675-58.28,32.242-59.508c26.105-1.312,37.776,32.5,37.776,32.5L7.685-2278.66s-19.51-56.793-97.214-56.793c-53.637,0-113.307,30.894-113.307,126.861s59.67,126.861,113.307,126.861c76.105,0,99.935-57.74,99.935-57.74Z" transform="translate(588.201 2335.453)"/>
        <ellipse id="Ellipse_2" data-name="Ellipse 2" cx="53.651" cy="53.651" rx="53.651" ry="53.651" transform="translate(624.685 146.424)"/>
      </g>
      <path id="Path_420" data-name="Path 420" d="M-619.154-2049.668h400.988l188.287-324.658H-565.4l75.011,81.161-22.686,64.746-66.92,43.583-56.713,13.421-13.044,43.292Z" transform="translate(1027.5 2374.326)" fill="url(#linear-gradient)"/>
      <g id="Group_414" data-name="Group 414" transform="translate(0 0)">
        <path id="Path_421" data-name="Path 421" d="M-553.2-2049.668l-95.807-167.163,90.269-157.5h-98.025l-41.256,71.979-41.257-71.979H-837.3l90.268,157.5-95.807,167.163h98.026l46.8-81.645,46.794,81.645Z" transform="translate(842.841 2374.326)"/>
        <path id="Path_422" data-name="Path 422" d="M-416.529-2299.921c-17.175-72.287-87.609-74.4-121.832-74.405H-678.018v324.658h85.9v-104.345h53.7c29.66,0,102.858-4.786,121.4-74.406a138.557,138.557,0,0,0,4.332-35.751A154.527,154.527,0,0,0-416.529-2299.921Zm-126.323,71.5h-49.268v-71.5h56.528c11.556.869,32.85,6.438,32.85,35.751s-21.294,34.882-32.85,35.751Z" transform="translate(1000.466 2374.326)"/>
      </g>
    </g>
  </g>
</svg>
